<svg xmlns="http://www.w3.org/2000/svg" width="87" height="58" viewBox="0 0 87 58">
    <path fill="none" fill-rule="evenodd" stroke="#5772f2" d="M29.08 1v4.445C22.72 8.77 18.166 12.24 15.42 15.853c-2.747 3.614-4.12 7.553-4.12 11.818 0 2.53.361 4.264 1.084 5.204.65 1.012 1.446 1.518 2.385 1.518.94 0 2.205-.271 3.795-.813 1.59-.542 3.035-.813 4.337-.813 2.963 0 5.547 1.102 7.751 3.306 2.205 2.205 3.307 4.897 3.307 8.078 0 3.469-1.337 6.45-4.011 8.944-2.675 2.494-6 3.74-9.975 3.74-4.842 0-9.215-2.096-13.118-6.288C2.952 46.355 1 41.187 1 35.043c0-7.228 2.403-13.968 7.21-20.22C13.016 8.571 19.973 3.963 29.08 1zm51.716.325v4.12c-7.3 4.192-12.107 7.95-14.42 11.276-2.313 3.325-3.47 7.228-3.47 11.709 0 2.024.398 3.542 1.193 4.553.796 1.012 1.627 1.518 2.494 1.518.795 0 1.988-.289 3.578-.867 1.59-.578 3.18-.867 4.77-.867 2.964 0 5.548 1.066 7.752 3.198C84.898 38.097 86 40.717 86 43.825c0 3.542-1.391 6.614-4.174 9.216-2.783 2.602-6.198 3.903-10.246 3.903-4.77 0-9.07-2.06-12.901-6.18-3.831-4.12-5.747-9.252-5.747-15.395 0-7.59 2.422-14.51 7.264-20.762 4.843-6.253 11.71-10.68 20.6-13.282z"/>
</svg>
