<svg xmlns="http://www.w3.org/2000/svg" width="87" height="58" viewBox="0 0 87 58">
    <path fill="none" fill-rule="evenodd" stroke="#5772f2" d="M6.204 56.944V52.39c7.3-4.12 12.089-7.86 14.366-11.221 2.276-3.361 3.415-7.246 3.415-11.655 0-2.024-.362-3.542-1.084-4.554-.796-1.011-1.663-1.517-2.603-1.517-.722 0-1.879.289-3.469.867-1.59.578-3.18.867-4.77.867-3.036 0-5.638-1.084-7.806-3.252C2.084 19.756 1 17.118 1 14.01c0-3.47 1.391-6.505 4.174-9.107C7.957 2.301 11.336 1 15.311 1c4.77 0 9.09 2.06 12.956 6.18 3.867 4.12 5.8 9.324 5.8 15.612 0 7.59-2.439 14.528-7.318 20.816-4.878 6.289-11.727 10.734-20.545 13.336zm51.716 0V52.39c6.288-3.252 10.823-6.704 13.606-10.354 2.783-3.65 4.174-7.607 4.174-11.871 0-2.53-.361-4.301-1.084-5.313-.723-.94-1.518-1.41-2.385-1.41-.94 0-2.205.29-3.795.868-1.662.578-3.108.867-4.337.867-2.963 0-5.547-1.12-7.751-3.36-2.205-2.241-3.307-4.916-3.307-8.024 0-3.469 1.337-6.469 4.011-8.998C59.727 2.265 63.015 1 66.918 1c4.915 0 9.324 2.114 13.227 6.342C84.048 11.571 86 16.757 86 22.901c0 7.227-2.403 13.967-7.21 20.22-4.806 6.252-11.763 10.86-20.87 13.823z"/>
</svg>
