<svg xmlns="http://www.w3.org/2000/svg" xmlns:xlink="http://www.w3.org/1999/xlink" version="1.1" x="0px" y="0px" viewBox="0 0 128 160" style="enable-background:new 0 0 128 128;" xml:space="preserve"><g><path d="M71.856,55.88c-0.451-1.009-1.633-1.458-2.642-1.01c-3.29,1.471-7.139,1.471-10.429,0c-1.007-0.447-2.19,0.001-2.642,1.01   c-0.45,1.009,0.002,2.191,1.01,2.642c2.162,0.966,4.466,1.456,6.847,1.456s4.684-0.49,6.846-1.456   C71.854,58.071,72.306,56.889,71.856,55.88z"/><path d="M38.178,68.901c1.439,1.512,3.303,2.422,5.316,2.616c0.701,3.319,3.555,5.812,6.963,5.812c0.761,0,1.621-0.044,2.471-0.246   c1.013,1.584,2.747,2.402,4.452,2.402c0.077,0,0.155-0.002,0.232-0.005c2.637-0.113,5.307-2.082,5.307-5.626V69.71   c0-5.188-4.06-9.409-9.05-9.409c-1.104,0-2,0.896-2,2s0.896,2,2,2c2.785,0,5.05,2.426,5.05,5.409v4.144   c0,1.491-1.231,1.619-1.479,1.63c-0.452,0.021-1.265-0.123-1.384-1.273v-0.949c0-1.104-0.896-2-2-2   c-1.077,0-1.956,0.852-1.999,1.918c-0.577,0.148-1.302,0.148-1.603,0.148c-1.406,0-2.585-1.016-2.979-2.401   c1.095-0.45,2.101-1.13,2.955-2.027c0.762-0.8,0.73-2.066-0.07-2.828c-0.801-0.762-2.067-0.73-2.828,0.07   c-0.869,0.913-2.016,1.415-3.23,1.415c-1.215,0-2.362-0.502-3.23-1.415c-1.856-1.951-1.856-5.125,0-7.075   c0.762-0.8,0.73-2.066-0.07-2.828c-0.675-0.643-1.676-0.714-2.431-0.244c-1.526-1.067-2.499-2.894-2.499-4.899   c0-1.979,0.948-3.785,2.44-4.858l0.689,0.723c0.393,0.413,0.921,0.621,1.449,0.621c0.495,0,0.991-0.183,1.378-0.551   c0.8-0.762,0.831-2.028,0.07-2.828l-1.026-1.078c-1.856-1.951-1.856-5.125,0-7.075c0.869-0.913,2.016-1.416,3.23-1.416   c1.214,0,2.361,0.503,3.23,1.416c0.761,0.8,2.027,0.831,2.828,0.07c0.8-0.761,0.832-2.027,0.07-2.828   c-0.856-0.9-1.865-1.581-2.964-2.031c0.425-1.408,1.769-2.412,3.31-2.394c0.242,0.004,0.805,0.015,1.281,0.126   c0.051,1.059,0.926,1.902,1.998,1.902c1.104,0,2-0.896,2-2v-0.949c0.119-1.149,0.932-1.289,1.384-1.273   c0.247,0.011,1.479,0.139,1.479,1.63v2.853c0,2.982-2.266,5.408-5.05,5.408c-1.104,0-2,0.896-2,2s0.896,2,2,2   c4.99,0,9.05-4.221,9.05-9.408v-2.853c0-3.544-2.67-5.513-5.307-5.626c-1.797-0.071-3.647,0.75-4.699,2.415   c-0.715-0.161-1.428-0.212-2.064-0.223c-3.562-0.088-6.627,2.425-7.354,5.808c-2.014,0.193-3.879,1.104-5.319,2.617   c-2.465,2.589-3.088,6.39-1.875,9.595c-2.592,1.804-4.227,4.877-4.227,8.208c0,3.331,1.635,6.404,4.227,8.208   C35.09,62.511,35.714,66.311,38.178,68.901z"/><path d="M89.821,33.294c-1.44-1.513-3.305-2.423-5.319-2.617c-0.719-3.337-3.72-5.809-7.221-5.809c-0.044,0-0.089,0-0.133,0.001   c-0.63,0.011-1.337,0.062-2.046,0.22c-1.056-1.67-2.929-2.477-4.716-2.411c-2.637,0.113-5.307,2.082-5.307,5.626v2.853   c0,5.188,4.06,9.408,9.05,9.408c1.104,0,2-0.896,2-2s-0.896-2-2-2c-2.785,0-5.05-2.426-5.05-5.408v-2.853   c0-1.491,1.231-1.619,1.478-1.63c0.468-0.015,1.265,0.123,1.385,1.273v0.949c0,1.104,0.896,2,2,2c1.072,0,1.947-0.843,1.998-1.902   c0.476-0.111,1.039-0.122,1.281-0.126c1.572-0.011,2.893,0.988,3.312,2.394c-1.099,0.45-2.109,1.131-2.965,2.031   c-0.762,0.8-0.73,2.066,0.07,2.828c0.801,0.762,2.066,0.73,2.828-0.07c0.869-0.913,2.016-1.416,3.23-1.416s2.361,0.503,3.23,1.416   c1.856,1.95,1.856,5.124,0,7.075l-1.026,1.078c-0.761,0.8-0.73,2.066,0.07,2.828c0.387,0.368,0.883,0.551,1.378,0.551   c0.528,0,1.056-0.208,1.449-0.621l0.689-0.723c1.492,1.073,2.441,2.879,2.441,4.858c0,2.005-0.973,3.832-2.499,4.899   c-0.755-0.47-1.757-0.399-2.432,0.244c-0.8,0.761-0.832,2.027-0.07,2.828c1.856,1.951,1.856,5.125,0,7.075   c-0.869,0.913-2.016,1.415-3.23,1.415s-2.361-0.502-3.23-1.415c-0.762-0.8-2.027-0.831-2.828-0.07   c-0.8,0.762-0.832,2.027-0.07,2.828c0.854,0.897,1.859,1.577,2.955,2.027c-0.394,1.385-1.573,2.401-2.979,2.401   c-0.3,0-1.026,0-1.602-0.148c-0.043-1.067-0.921-1.918-1.999-1.918c-1.104,0-2,0.896-2,2v0.949   c-0.119,1.149-0.919,1.286-1.385,1.273c-0.247-0.011-1.478-0.139-1.478-1.63V69.71c0-2.982,2.266-5.409,5.05-5.409   c1.104,0,2-0.896,2-2s-0.896-2-2-2c-4.99,0-9.05,4.221-9.05,9.409v4.144c0,3.544,2.67,5.513,5.307,5.626   c0.077,0.003,0.155,0.005,0.232,0.005c1.705,0,3.439-0.818,4.453-2.402c0.85,0.202,1.71,0.246,2.471,0.246   c3.409,0,6.263-2.493,6.963-5.812c2.013-0.194,3.877-1.104,5.316-2.616c2.464-2.589,3.088-6.39,1.875-9.595   c2.592-1.804,4.228-4.877,4.228-8.208s-1.635-6.404-4.227-8.209C92.909,39.684,92.286,35.884,89.821,33.294z"/><path d="M103.395,46.376c-2.179-18.834-17.557-33.46-36.567-34.777c-11.16-0.77-21.784,2.98-29.917,10.569   c-7.995,7.459-12.58,17.998-12.58,28.912c0,12.696,6.172,24.711,16.511,32.141c2.508,1.803,4.006,4.657,4.006,7.636v0.311   c0,1.104,0.896,2,2,2s2-0.896,2-2v-0.311c0-4.263-2.12-8.332-5.672-10.884c-9.295-6.68-14.845-17.481-14.845-28.893   c0-9.81,4.122-19.282,11.309-25.988c7.313-6.824,16.87-10.197,26.911-9.503c17.088,1.184,30.913,14.326,32.87,31.247   c1.734,14.984-5.795,29.089-19.181,35.933c-0.983,0.503-1.373,1.708-0.87,2.691c0.503,0.983,1.708,1.371,2.691,0.87   C96.949,78.719,105.323,63.035,103.395,46.376z"/><path d="M81.151,89.167H56.632c-1.104,0-2,0.896-2,2s0.896,2,2,2h22.519v7.343c0,2.019-1.643,3.661-3.661,3.661H52.509   c-1.964,0-3.559-1.558-3.645-3.501h22.502c1.104,0,2-0.896,2-2s-0.896-2-2-2H46.853c-0.002,0-0.003,0-0.005,0c-1.104,0-2,0.896-2,2   v1.841c0,4.224,3.437,7.661,7.661,7.661h1.34c0.936,4.742,5.13,8.33,10.151,8.33s9.215-3.589,10.151-8.33h1.339   c4.225,0,7.661-3.437,7.661-7.661v-9.343C83.151,90.062,82.256,89.167,81.151,89.167z M64,112.5c-2.799,0-5.177-1.818-6.02-4.33   h12.039C69.177,110.682,66.799,112.5,64,112.5z"/><path d="M51.301,48.038c-0.721,0.836-0.628,2.1,0.208,2.821c0.378,0.326,0.843,0.485,1.305,0.485c0.562,0,1.12-0.235,1.516-0.694   c0.961-1.115,2.098-2.032,3.346-2.745c-0.006,0.115-0.024,0.227-0.024,0.343c0,3.506,2.848,6.358,6.348,6.358   s6.348-2.853,6.348-6.358c0-0.116-0.019-0.228-0.025-0.342c1.247,0.713,2.384,1.63,3.345,2.745   c0.721,0.836,1.983,0.929,2.821,0.208c0.836-0.722,0.93-1.984,0.208-2.821c-3.191-3.7-7.819-5.822-12.699-5.822   C59.12,42.217,54.492,44.338,51.301,48.038z M66.348,48.248c0,1.3-1.053,2.358-2.348,2.358s-2.348-1.058-2.348-2.358   c0-0.811,0.419-1.53,1.085-1.963c0.417-0.042,0.838-0.068,1.262-0.069c0.423,0,0.843,0.027,1.259,0.068   C65.92,46.716,66.348,47.444,66.348,48.248z"/></g></svg>